<svg width="82" height="82" viewBox="0 0 82 82" fill="none" xmlns="http://www.w3.org/2000/svg">
<g id="noun_hairdresser_1530755.svg" clip-path="url(#clip0_1_70)">
<g id="Group">
<path id="Vector" d="M50.6954 64.3508C49.5058 64.351 48.3429 64.704 47.3538 65.365C46.3648 66.0261 45.5939 66.9655 45.1388 68.0647C44.6836 69.1638 44.5646 70.3732 44.7967 71.5399C45.0288 72.7067 45.6017 73.7784 46.4429 74.6196C47.2841 75.4608 48.3558 76.0337 49.5226 76.2659C50.6894 76.498 51.8988 76.379 52.9979 75.9238C54.097 75.4686 55.0365 74.6978 55.6975 73.7087C56.3586 72.7197 56.7115 71.5568 56.7117 70.3672C56.7101 68.772 56.0758 67.2427 54.9478 66.1147C53.8199 64.9868 52.2905 64.3524 50.6954 64.3508ZM50.6954 74.3817C49.9012 74.3815 49.125 74.1458 48.4647 73.7045C47.8045 73.2631 47.29 72.6359 46.9862 71.9022C46.6824 71.1684 46.6031 70.361 46.7581 69.5822C46.9132 68.8033 47.2957 68.0879 47.8573 67.5264C48.4189 66.9649 49.1345 66.5826 49.9134 66.4277C50.6923 66.2728 51.4996 66.3524 52.2333 66.6564C52.967 66.9603 53.5941 67.475 54.0353 68.1353C54.4765 68.7957 54.712 69.572 54.712 70.3662C54.7106 71.4309 54.287 72.4517 53.534 73.2045C52.781 73.9573 51.7602 74.3807 50.6954 74.3817Z" fill="#C29E75" stroke="#C29E75" stroke-width="0.999889"/>
<path id="Vector_2" d="M70.3362 59.6985C70.2082 15.8534 61.6882 2.03195 61.3212 1.46101C61.2369 1.33236 61.1235 1.22544 60.99 1.14898C60.8566 1.07253 60.7069 1.02869 60.5533 1.02106C60.5007 1.01707 60.4479 1.01707 60.3953 1.02106C60.3633 1.02106 60.3333 1.02106 60.3013 1.02106C60.146 1.02808 59.9945 1.07179 59.8593 1.14861C59.7241 1.22542 59.609 1.33316 59.5234 1.46301C59.1585 2.03395 50.6384 15.8544 50.5104 59.6985C48.603 59.729 46.7387 60.2702 45.1115 61.2657C43.4842 62.2613 42.1536 63.6748 41.2581 65.3592C40.3625 67.0435 39.9349 68.9371 40.0196 70.8429C40.1043 72.7486 40.6983 74.5968 41.7397 76.1951C42.7812 77.7934 44.232 79.0833 45.9411 79.9305C47.6503 80.7777 49.5553 81.1514 51.4578 81.0125C53.3604 80.8736 55.191 80.2273 56.7589 79.1408C58.3269 78.0543 59.575 76.5674 60.3733 74.8349C61.1705 76.5615 62.4148 78.0437 63.9773 79.1278C65.5399 80.2119 67.3639 80.8585 69.2604 81.0007C71.1569 81.1429 73.0569 80.7754 74.7636 79.9364C76.4703 79.0974 77.9217 77.8174 78.9674 76.2289C80.0131 74.6404 80.6151 72.8012 80.7111 70.9018C80.807 69.0024 80.3934 67.1119 79.5131 65.4261C78.6327 63.7404 77.3177 62.3206 75.7042 61.3139C74.0907 60.3072 72.2374 59.7502 70.3362 59.7006V59.6985ZM61.4802 6.67043C63.13 11.0959 65.5088 19.392 66.9876 33.0835C65.7537 32.5606 63.334 31.5057 61.4802 30.6938V6.67043ZM50.6954 79.0374C48.3954 79.0374 46.1897 78.1237 44.5633 76.4974C42.937 74.8711 42.0234 72.6653 42.0234 70.3654C42.0234 68.0654 42.937 65.8596 44.5633 64.2333C46.1897 62.607 48.3954 61.6933 50.6954 61.6933H51.5103C51.7755 61.6933 52.0298 61.588 52.2173 61.4005C52.4048 61.2129 52.5102 60.9586 52.5102 60.6934C52.5102 53.6942 52.7312 47.4549 53.1001 41.9045H59.3674V70.3664C59.3645 72.6653 58.4499 74.8693 56.8242 76.4948C55.1985 78.1204 52.9944 79.0348 50.6954 79.0374ZM70.0533 79.0374C67.7541 79.0347 65.5499 78.1202 63.9241 76.4945C62.2984 74.8687 61.3839 72.6645 61.3812 70.3654C61.3812 70.3394 61.3682 70.3184 61.3662 70.2924V41.0196C61.3662 40.9996 61.3562 40.9826 61.3552 40.9626C61.3542 40.9426 61.3662 40.9256 61.3662 40.9056C61.3662 40.6404 61.2609 40.3861 61.0734 40.1986C60.8858 40.0111 60.6315 39.9057 60.3663 39.9057H53.2431C54.608 21.7428 57.5756 11.3729 59.4794 6.36447V31.3477C59.4795 31.5422 59.5363 31.7324 59.6429 31.8951C59.7494 32.0577 59.9011 32.1858 60.0794 32.2636C61.1652 32.7395 66.6036 35.1243 67.1226 35.2963C67.1526 35.3063 67.1826 35.3043 67.2126 35.3113C67.8955 42.3765 68.3384 50.7675 68.3384 60.6954C68.3384 60.9606 68.4438 61.2149 68.6313 61.4025C68.8188 61.59 69.0731 61.6953 69.3383 61.6953H70.0543C72.3541 61.6953 74.5597 62.6089 76.1859 64.2352C77.8122 65.8614 78.7258 68.067 78.7258 70.3669C78.7258 72.6667 77.8122 74.8723 76.1859 76.4986C74.5597 78.1248 72.3541 79.0384 70.0543 79.0384L70.0533 79.0374Z" fill="#C29E75" stroke="#C29E75" stroke-width="0.999889"/>
<path id="Vector_3" d="M70.0532 64.3508C68.8636 64.3508 67.7006 64.7036 66.7114 65.3645C65.7222 66.0255 64.9512 66.9649 64.4959 68.064C64.0406 69.1631 63.9214 70.3725 64.1534 71.5393C64.3854 72.7062 64.9582 73.778 65.7994 74.6193C66.6406 75.4606 67.7123 76.0336 68.8791 76.2658C70.0459 76.498 71.2553 76.379 72.3545 75.9239C73.4537 75.4688 74.3932 74.6979 75.0543 73.7088C75.7154 72.7197 76.0684 71.5568 76.0686 70.3672C76.067 68.7722 75.4327 67.243 74.305 66.1151C73.1773 64.9872 71.6482 64.3527 70.0532 64.3508ZM70.0532 74.3817C69.259 74.3817 68.4827 74.1462 67.8223 73.705C67.162 73.2637 66.6473 72.6366 66.3433 71.9028C66.0394 71.1691 65.9599 70.3617 66.1148 69.5828C66.2698 68.8038 66.6522 68.0883 67.2138 67.5267C67.7754 66.9652 68.4909 66.5827 69.2698 66.4278C70.0488 66.2728 70.8562 66.3523 71.5899 66.6563C72.3237 66.9602 72.9508 67.4749 73.3921 68.1352C73.8333 68.7956 74.0688 69.572 74.0688 70.3662C74.0675 71.4308 73.644 72.4514 72.8912 73.2041C72.1384 73.9569 71.1178 74.3804 70.0532 74.3817Z" fill="#C29E75" stroke="#C29E75" stroke-width="0.999889"/>
<path id="Vector_4" d="M29.3878 74.0999L28.3879 52.1703C28.3879 50.6853 28.9779 49.261 30.0279 48.211C31.078 47.1609 32.5023 46.5709 33.9873 46.5709H39.5607C40.7958 46.5696 41.9799 46.0784 42.8533 45.205C43.7266 44.3317 44.2178 43.1476 44.2192 41.9125V1.99989C44.2192 1.7347 44.1138 1.48038 43.9263 1.29286C43.7388 1.10534 43.4845 1 43.2193 1C42.9541 1 42.6998 1.10534 42.5122 1.29286C42.3247 1.48038 42.2194 1.7347 42.2194 1.99989V29.5788H37.7379V1.99989C37.7379 1.76122 37.6431 1.53233 37.4743 1.36356C37.3055 1.1948 37.0767 1.09999 36.838 1.09999C36.5993 1.09999 36.3704 1.1948 36.2017 1.36356C36.0329 1.53233 35.9381 1.76122 35.9381 1.99989V29.5788H31.9945V1.99989C31.9945 1.76122 31.8997 1.53233 31.7309 1.36356C31.5622 1.1948 31.3333 1.09999 31.0946 1.09999C30.856 1.09999 30.6271 1.1948 30.4583 1.36356C30.2895 1.53233 30.1947 1.76122 30.1947 1.99989V29.5788H26.2502V1.99989C26.2502 1.76122 26.1554 1.53233 25.9866 1.36356C25.8178 1.1948 25.5889 1.09999 25.3503 1.09999C25.1116 1.09999 24.8827 1.1948 24.7139 1.36356C24.5452 1.53233 24.4504 1.76122 24.4504 1.99989V29.5788H20.5068V1.99989C20.5068 1.76122 20.412 1.53233 20.2432 1.36356C20.0745 1.1948 19.8456 1.09999 19.6069 1.09999C19.3682 1.09999 19.1393 1.1948 18.9706 1.36356C18.8018 1.53233 18.707 1.76122 18.707 1.99989V29.5788H14.7574V1.99989C14.7574 1.76122 14.6626 1.53233 14.4939 1.36356C14.3251 1.1948 14.0962 1.09999 13.8575 1.09999C13.6189 1.09999 13.39 1.1948 13.2212 1.36356C13.0524 1.53233 12.9576 1.76122 12.9576 1.99989V29.5788H9.01407V1.99989C9.01407 1.76122 8.91926 1.53233 8.7505 1.36356C8.58174 1.1948 8.35284 1.09999 8.11417 1.09999C7.87551 1.09999 7.64661 1.1948 7.47785 1.36356C7.30908 1.53233 7.21427 1.76122 7.21427 1.99989V29.5788H2.73577V1.99989C2.73577 1.7347 2.63042 1.48038 2.44291 1.29286C2.25539 1.10534 2.00107 1 1.73588 1C1.47069 1 1.21637 1.10534 1.02885 1.29286C0.841338 1.48038 0.735992 1.7347 0.735992 1.99989V41.9165C0.737316 43.1516 1.22854 44.3357 2.10189 45.209C2.97524 46.0824 4.15938 46.5736 5.39448 46.5749H10.9669C12.4439 46.5733 13.8617 47.156 14.9107 48.1959C15.9597 49.2357 16.5549 50.6483 16.5662 52.1253L15.5663 74.1459C15.5724 75.9791 16.3065 77.7348 17.6072 79.0268C18.9078 80.3188 20.6683 81.0412 22.5016 81.0351C24.3348 81.029 26.0905 80.2949 27.3825 78.9943C28.6745 77.6937 29.3969 75.9331 29.3908 74.0999H29.3878ZM17.5601 74.1909L18.56 52.1703C18.56 50.1549 17.7594 48.222 16.3343 46.7969C14.9092 45.3718 12.9763 44.5712 10.9609 44.5712H5.39248C4.68759 44.5704 4.0118 44.29 3.51336 43.7916C3.01493 43.2931 2.73456 42.6173 2.73377 41.9125V31.3796H42.2164V41.9165C42.2156 42.6213 41.9352 43.2971 41.4368 43.7956C40.9384 44.294 40.2626 44.5744 39.5577 44.5752H33.9843C32.9833 44.5769 31.9925 44.776 31.0685 45.1611C30.1446 45.5462 29.3057 46.1098 28.5998 46.8195C27.894 47.5293 27.335 48.3713 26.955 49.2974C26.575 50.2234 26.3813 51.2153 26.3851 52.2163L27.385 74.1469C27.3909 75.4503 26.8787 76.7026 25.9612 77.6284C25.0437 78.5541 23.796 79.0775 22.4926 79.0833C21.1892 79.0892 19.9369 78.577 19.0111 77.6595C18.0853 76.742 17.562 75.4943 17.5561 74.1909H17.5601Z" fill="#C29E75" stroke="#C29E75" stroke-width="0.999889"/>
</g>
</g>
<defs>
<clipPath id="clip0_1_70">
<rect width="80.988" height="81.06" fill="white" transform="translate(0.235992 0.5)"/>
</clipPath>
</defs>
</svg>
