<svg width="25" height="30" viewBox="0 0 25 30" fill="none" xmlns="http://www.w3.org/2000/svg">
<g id="noun_barber-chair_1634553.svg" clip-path="url(#clip0_1_147)">
<g id="Group">
<path id="Vector" d="M26.467 11.188H22.86V16.001C22.86 16.6391 22.6065 17.2511 22.1553 17.7023C21.7041 18.1535 21.0921 18.407 20.454 18.407H6.016C5.37789 18.407 4.76591 18.1535 4.3147 17.7023C3.86349 17.2511 3.61 16.6391 3.61 16.001V11.188H0V13.594H1.2V16C1.2 17.2765 1.70708 18.5007 2.60969 19.4033C3.51231 20.3059 4.73651 20.813 6.013 20.813V23.219H12.029V26.828H8.422V29.234H18.047V26.829H14.438V23.22H20.454V20.815C21.0861 20.815 21.7119 20.6905 22.2959 20.4486C22.8798 20.2067 23.4104 19.8522 23.8573 19.4053C24.3042 18.9584 24.6588 18.4278 24.9006 17.8438C25.1425 17.2599 25.267 16.634 25.267 16.002V13.594H26.467V11.188Z" fill="#C29E75"/>
<path id="Vector_2" d="M18.048 2.76563H17.448V3.96563C17.4472 4.76316 17.13 5.52779 16.5661 6.09173C16.0022 6.65567 15.2375 6.97284 14.44 6.97363H12.032C11.2345 6.97284 10.4698 6.65567 9.90589 6.09173C9.34195 5.52779 9.02478 4.76316 9.02399 3.96563V2.76563H8.42399C8.10786 2.76537 7.79478 2.82741 7.50264 2.9482C7.2105 3.069 6.94503 3.24618 6.7214 3.46963C6.49777 3.69307 6.32037 3.9584 6.19933 4.25043C6.07829 4.54247 6.01599 4.8555 6.01599 5.17163V15.9986H20.454V5.17163C20.4548 4.85545 20.3931 4.54223 20.2725 4.24996C20.1518 3.95769 19.9746 3.69214 19.7511 3.46857C19.5275 3.24499 19.2619 3.0678 18.9697 2.94717C18.6774 2.82653 18.3642 2.76484 18.048 2.76563Z" fill="#C29E75"/>
<path id="Vector_3" d="M15.641 3.96886C15.6392 4.28656 15.5121 4.59071 15.2875 4.81536C15.0628 5.04001 14.7587 5.16703 14.441 5.16886H12.031C11.7133 5.16703 11.4091 5.04001 11.1845 4.81536C10.9599 4.59071 10.8328 4.28656 10.831 3.96886V1.55986C10.8328 1.24217 10.9599 0.938012 11.1845 0.713366C11.4091 0.488719 11.7133 0.3617 12.031 0.359863H14.437C14.7547 0.3617 15.0588 0.488719 15.2835 0.713366C15.5081 0.938012 15.6352 1.24217 15.637 1.55986L15.641 3.96886Z" fill="#C29E75"/>
</g>
</g>
<defs>
<clipPath id="clip0_1_147">
<rect width="26.47" height="28.876" fill="white" transform="translate(0 0.359863)"/>
</clipPath>
</defs>
</svg>
