<svg width="49" height="49" viewBox="0 0 49 49" fill="none" xmlns="http://www.w3.org/2000/svg">
<g id="Section" clip-path="url(#clip0_1_15)">
<path id="Vector" d="M24.44 48.9067C37.6 48.9067 48.3334 38.1733 48.3334 25.0133C48.3334 11.8533 37.6 1.12001 24.44 1.12001C11.28 1.12001 0.546692 11.8533 0.546692 25.0133C0.546692 38.1733 11.28 48.9067 24.44 48.9067ZM24.44 2.98668C36.5734 2.98668 46.4667 12.88 46.4667 25.0133C46.4667 37.1467 36.5734 47.04 24.44 47.04C12.3067 47.04 2.41336 37.1467 2.41336 25.0133C2.41336 12.88 12.3067 2.98668 24.44 2.98668ZM21.1734 33.5067L32.9334 25.2933C33.68 24.8267 33.68 23.7067 32.9334 23.24L21.1734 15.0267C20.3334 14.4667 19.2134 15.0267 19.2134 16.0533V32.48C19.2134 33.5067 20.3334 34.0667 21.1734 33.5067Z" fill="#C29E75"/>
</g>
<defs>
<clipPath id="clip0_1_15">
<rect width="48" height="49" fill="white" transform="matrix(1 0 0 -1 0.440002 49)"/>
</clipPath>
</defs>
</svg>
